<?xml version="1.0" encoding="utf-8"?>
<!-- Generator: Adobe Illustrator 19.2.1, SVG Export Plug-In . SVG Version: 6.00 Build 0)  -->
<svg version="1.1" id="Layer_1" xmlns="http://www.w3.org/2000/svg" xmlns:xlink="http://www.w3.org/1999/xlink" x="0px" y="0px"
	 viewBox="0 0 800 298" style="enable-background:new 0 0 800 298;" xml:space="preserve">
<style type="text/css">
	.st0{fill:#222222;}
	.st1{fill:#231F20;}
	.st2{fill:#FFFFFF;}
</style>
<g>
	<path class="st0" d="M184.7,79.7c0,14.6,9.5,22.8,20.7,22.8c11.2,0,16.8-7.4,18.6-13.6l19.2,6.4c-3.6,13.5-16.3,27.3-37.8,27.3
		c-23.8,0-42.6-18.1-42.6-42.9c0-25,18.4-42.9,41.9-42.9c22,0,34.5,13.6,38,27.3l-19.6,6.6c-2-6.7-7.1-13.6-17.9-13.6
		C194.1,57,184.7,65.1,184.7,79.7z"/>
	<path class="st0" d="M343.1,111.4c-4.4,7.6-13.8,10.8-22.3,10.8c-19.6,0-30.7-14.3-30.7-31.9V39.3h21.9v46.7
		c0,9,4.6,16.3,14.8,16.3c9.7,0,15.3-6.6,15.3-15.9v-47h21.9v66.2c0,6.2,0.5,11.8,0.8,14.6h-20.9
		C343.4,118.5,343.1,114.7,343.1,111.4z"/>
	<path class="st0" d="M420,151.3V39.3h21.2v9.9c3.6-6.2,12.7-11.7,24.8-11.7c23.7,0,37.3,18.1,37.3,42.1c0,24.5-15.3,42.6-38.1,42.6
		c-11.2,0-19.4-4.4-23.3-9.9v39.1H420z M461.7,57c-11.2,0-20.2,8.4-20.2,22.7s9,22.8,20.2,22.8c11.2,0,20-8.4,20-22.8
		C481.8,65.4,472.9,57,461.7,57z"/>
	<path class="st0" d="M705.5,79.7c0,24.8-18.2,42.9-42.4,42.9c-24.2,0-42.4-18.1-42.4-42.9c0-25,18.2-42.9,42.4-42.9
		C687.3,36.8,705.5,54.7,705.5,79.7z M683.7,79.7c0-15.3-9.9-23-20.5-23c-10.7,0-20.5,7.7-20.5,23c0,15.1,9.9,23,20.5,23
		C673.8,102.7,683.7,95,683.7,79.7z"/>
	<path class="st0" d="M781.8,30.4v8.9H800V58h-18.2v62.1h-22V58h-13.5V39.3h13.5v-9.2c0-18.2,11.5-30.1,29.4-30.1
		c4.6,0,9,0.8,10.8,1.6V20c-1.2-0.3-3.3-0.8-6.9-0.8C788.2,19.2,781.8,21.4,781.8,30.4z"/>
	<path class="st0" d="M184.7,254.2c0,14.6,9.5,22.8,20.7,22.8c11.2,0,16.8-7.4,18.6-13.6l19.2,6.4c-3.6,13.5-16.3,27.3-37.8,27.3
		c-23.8,0-42.6-18.1-42.6-42.9c0-25,18.4-42.9,41.9-42.9c22,0,34.5,13.6,38,27.3l-19.6,6.6c-2-6.7-7.1-13.6-17.9-13.6
		C194.1,231.5,184.7,239.6,184.7,254.2z"/>
	<path class="st0" d="M370,254.2c0,24.8-18.2,42.9-42.4,42.9s-42.4-18.1-42.4-42.9c0-25,18.2-42.9,42.4-42.9S370,229.2,370,254.2z
		 M348.2,254.2c0-15.3-9.9-23-20.5-23c-10.7,0-20.5,7.7-20.5,23c0,15.1,9.9,23,20.5,23C338.3,277.2,348.2,269.5,348.2,254.2z"/>
	<path class="st0" d="M497.2,280c0,5.4,0.3,11.3,0.7,14.6H477c-0.3-1.6-0.8-5.6-0.8-9.4c-3.6,6.4-11.8,11.3-22.7,11.3
		c-23,0-39.4-18.1-39.4-42.6c0-23.7,15.9-42.2,38.8-42.2c14,0,20.5,5.7,22.8,10v-46.2h21.5V280z M456.1,277
		c11.2,0,19.9-8.5,19.9-23.2c0-14.5-8.7-22.5-19.9-22.5c-11.2,0-20,8.2-20,22.7C436.1,268.5,444.6,277,456.1,277z"/>
	<path class="st0" d="M626.2,271.5c-4.1,14-16.9,25.6-36.8,25.6c-22.2,0-41.7-15.9-41.7-43.2c0-25.8,19.1-42.6,39.8-42.6
		c25,0,39.9,15.9,39.9,41.9c0,3.1-0.3,6.4-0.3,6.7h-57.8c0.5,10.7,9.5,18.4,20.4,18.4c10.2,0,15.8-5.1,18.4-12.3L626.2,271.5z
		 M605.8,245c-0.3-8.1-5.6-15.9-18.1-15.9c-11.3,0-17.6,8.5-18.1,15.9H605.8z"/>
</g>
<g>
	<path class="st0" d="M675.5,297v-16.2h75.7V297H675.5z"/>
</g>
<g>
	<g>
		<g>
			<g>
				<g>
					<path class="st1" d="M7,156.3c14.8,0,26-6.5,26-24.2V95.2C33,61.2,52.3,45,83.4,45h8.1v26.2h-7.8c-12.7,0-21.6,6-21.6,23.1
						v43.7c0,16.4-9.6,28.3-26.2,32.7c16.6,4.2,26.2,16.1,26.2,32.7V247c0,17.2,8.8,23.4,21.6,23.4h7.8v26.2h-8.1
						c-31.2,0-50.4-16.4-50.4-50.4v-36.9c0-17.7-11.2-24.2-26-24.2V156.3z"/>
				</g>
			</g>
			<g>
				<g>
					<path class="st1" d="M92.9,298h-9.5c-33.4,0-51.8-18.4-51.8-51.8v-36.9c0-15.1-8.3-22.8-24.6-22.8H5.6v-31.7H7
						c16.3,0,24.6-7.7,24.6-22.8V95.2c0-33.3,18.4-51.6,51.8-51.6h9.5v29.1h-9.2c-13.6,0-20.2,7.1-20.2,21.7v43.7
						c0,15.6-8.3,27.3-22.9,32.7c14.6,5.2,22.9,17,22.9,32.8V247c0,14.8,6.6,22,20.2,22h9.2V298z M8.5,183.7
						c16.8,0.5,26,9.5,26,25.6v36.9c0,32.1,16.9,49,49,49h6.6v-23.4h-6.4c-15,0-23-8.6-23-24.8v-43.4c0-15.9-9.2-27.4-25.2-31.4
						l-5.3-1.3l5.3-1.4c16-4.2,25.2-15.7,25.2-31.4V94.4c0-16.3,7.7-24.5,23-24.5h6.4V46.5h-6.6c-32.1,0-49,16.9-49,48.7v36.9
						c0,16.1-9.2,25.1-26,25.6V183.7z"/>
				</g>
			</g>
		</g>
		<g>
			<g>
				<g>
					<path class="st2" d="M1.4,148c14.8,0,26-6.5,26-24.2V86.9c0-34,19.2-50.2,50.4-50.2h8.1V63h-7.8c-12.7,0-21.6,6-21.6,23.1v43.7
						c0,16.4-9.6,28.3-26.2,32.7c16.6,4.2,26.2,16.1,26.2,32.7v43.4c0,17.2,8.8,23.4,21.6,23.4h7.8v26.2h-8.1
						c-31.2,0-50.4-16.4-50.4-50.4V201c0-17.7-11.2-24.2-26-24.2V148z"/>
				</g>
			</g>
			<g>
				<g>
					<path class="st1" d="M87.3,289.8h-9.5c-33.4,0-51.8-18.4-51.8-51.8V201c0-15.1-8.3-22.8-24.6-22.8H0v-31.7h1.4
						c16.3,0,24.6-7.7,24.6-22.8V86.9c0-33.3,18.4-51.6,51.8-51.6h9.5v29.1h-9.2c-13.6,0-20.2,7.1-20.2,21.7v43.7
						c0,15.6-8.3,27.3-22.9,32.7c14.6,5.2,22.9,17,22.9,32.8v43.4c0,14.8,6.6,22,20.2,22h9.2V289.8z M2.9,175.5
						c16.8,0.5,26,9.5,26,25.6v36.9c0,32.1,16.9,49,49,49h6.6v-23.4h-6.4c-15,0-23-8.6-23-24.8v-43.4c0-15.9-9.2-27.4-25.2-31.4
						l-5.3-1.3l5.3-1.4c16-4.2,25.2-15.7,25.2-31.4V86.2c0-16.3,7.7-24.5,23-24.5h6.4V38.2h-6.6c-32.1,0-49,16.9-49,48.7v36.9
						c0,16.1-9.2,25.1-26,25.6V175.5z"/>
				</g>
			</g>
		</g>
		<g>
			<polygon class="st1" points="5.6,186.5 0,178.2 3.8,176.9 7,177.2 			"/>
		</g>
		<g>
			<polygon class="st1" points="87.2,35.4 92.9,43.8 91.5,47.4 86.4,47.4 			"/>
		</g>
		<g>
			<polygon class="st1" points="87.2,260.7 92.9,269 91.5,273.3 85.9,273.3 85.9,261.7 			"/>
		</g>
	</g>
	<g>
		<g>
			<path class="st2" d="M1.4,148c14.8,0,26-6.5,26-24.2V86.9c0-34,19.2-50.2,50.4-50.2h8.1V63h-7.8c-12.7,0-21.6,6-21.6,23.1v43.7
				c0,16.4-9.6,28.3-26.2,32.7c16.6,4.2,26.2,16.1,26.2,32.7v43.4c0,17.2,8.8,23.4,21.6,23.4h7.8v26.2h-8.1
				c-31.2,0-50.4-16.4-50.4-50.4V201c0-17.7-11.2-24.2-26-24.2V148z"/>
		</g>
	</g>
</g>
</svg>

