<?xml version="1.0" encoding="UTF-8"?>
<svg width="32px" height="32px" viewBox="0 0 32 32" version="1.1" xmlns="http://www.w3.org/2000/svg" xmlns:xlink="http://www.w3.org/1999/xlink">
    <!-- Generator: Sketch 64 (93537) - https://sketch.com -->
    <title>Untitled 3</title>
    <desc>Created with Sketch.</desc>
    <g id="Page-1" stroke="none" stroke-width="1" fill="none" fill-rule="evenodd">
        <rect id="Rectangle" x="0" y="0" width="32" height="32"></rect>
        <g id="Group-2" transform="translate(12.000000, 6.000000)" fill-rule="nonzero">
            <g id="Group">
                <g>
                    <g transform="translate(0.378788, 0.606061)" fill="#231F20">
                        <path d="M0.151515152,8.58333333 C1.27272727,8.58333333 2.12121212,8.09090909 2.12121212,6.75 L2.12121212,3.95454545 C2.12121212,1.37878788 3.58333333,0.151515152 5.93939394,0.151515152 L6.5530303,0.151515152 L6.5530303,2.13636364 L5.96212121,2.13636364 C5,2.13636364 4.32575758,2.59090909 4.32575758,3.88636364 L4.32575758,7.1969697 C4.32575758,8.43939394 3.59848485,9.34090909 2.34090909,9.67424242 C3.59848485,9.99242424 4.32575758,10.8939394 4.32575758,12.1515152 L4.32575758,15.4545455 C4.32575758,16.7575758 4.99242424,17.2272727 5.96212121,17.2272727 L6.5530303,17.2272727 L6.5530303,19.2121212 L5.93939394,19.2121212 C3.57575758,19.2121212 2.12121212,17.969697 2.12121212,15.3939394 L2.12121212,12.5984848 C2.12121212,11.2575758 1.27272727,10.7651515 0.151515152,10.7651515 L0.151515152,8.58333333 L0.151515152,8.58333333 Z" id="Path"></path>
                        <path d="M6.65909091,19.3181818 L5.93939394,19.3181818 C3.40909091,19.3181818 2.01515152,17.9242424 2.01515152,15.3939394 L2.01515152,12.5984848 C2.01515152,11.4545455 1.38636364,10.8712121 0.151515152,10.8712121 L0.0454545455,10.8712121 L0.0454545455,8.46969697 L0.151515152,8.46969697 C1.38636364,8.46969697 2.01515152,7.88636364 2.01515152,6.74242424 L2.01515152,3.95454545 C2.01515152,1.43181818 3.40909091,0.0454545455 5.93939394,0.0454545455 L6.65909091,0.0454545455 L6.65909091,2.25 L5.96212121,2.25 C4.93181818,2.25 4.43181818,2.78787879 4.43181818,3.89393939 L4.43181818,7.20454545 C4.43181818,8.38636364 3.8030303,9.27272727 2.6969697,9.68181818 C3.8030303,10.0757576 4.43181818,10.969697 4.43181818,12.1666667 L4.43181818,15.4545455 C4.43181818,16.5757576 4.93181818,17.1212121 5.96212121,17.1212121 L6.65909091,17.1212121 L6.65909091,19.3181818 Z M0.265151515,10.6590909 C1.53787879,10.6969697 2.23484848,11.3787879 2.23484848,12.5984848 L2.23484848,15.3939394 C2.23484848,17.8257576 3.51515152,19.1060606 5.9469697,19.1060606 L6.4469697,19.1060606 L6.4469697,17.3333333 L5.96212121,17.3333333 C4.82575758,17.3333333 4.21969697,16.6818182 4.21969697,15.4545455 L4.21969697,12.1666667 C4.21969697,10.9621212 3.52272727,10.0909091 2.31060606,9.78787879 L1.90909091,9.68939394 L2.31060606,9.58333333 C3.52272727,9.26515152 4.21969697,8.39393939 4.21969697,7.20454545 L4.21969697,3.89393939 C4.21969697,2.65909091 4.8030303,2.03787879 5.96212121,2.03787879 L6.4469697,2.03787879 L6.4469697,0.265151515 L5.9469697,0.265151515 C3.51515152,0.265151515 2.23484848,1.54545455 2.23484848,3.95454545 L2.23484848,6.75 C2.23484848,7.96969697 1.53787879,8.65151515 0.265151515,8.68939394 L0.265151515,10.6590909 Z" id="Shape"></path>
                    </g>
                    <g>
                        <path d="M0.106060606,8.56060606 C1.22727273,8.56060606 2.07575758,8.06818182 2.07575758,6.72727273 L2.07575758,3.93181818 C2.07575758,1.35606061 3.53030303,0.128787879 5.89393939,0.128787879 L6.50757576,0.128787879 L6.50757576,2.12121212 L5.91666667,2.12121212 C4.95454545,2.12121212 4.28030303,2.57575758 4.28030303,3.87121212 L4.28030303,7.18181818 C4.28030303,8.42424242 3.5530303,9.32575758 2.29545455,9.65909091 C3.5530303,9.97727273 4.28030303,10.8787879 4.28030303,12.1363636 L4.28030303,15.4242424 C4.28030303,16.7272727 4.9469697,17.1969697 5.91666667,17.1969697 L6.50757576,17.1969697 L6.50757576,19.1818182 L5.89393939,19.1818182 C3.53030303,19.1818182 2.07575758,17.9393939 2.07575758,15.3636364 L2.07575758,12.5757576 C2.07575758,11.2348485 1.22727273,10.7424242 0.106060606,10.7424242 L0.106060606,8.56060606 Z" id="Path" fill="#FFFFFF"></path>
                        <path d="M6.61363636,19.3030303 L5.89393939,19.3030303 C3.36363636,19.3030303 1.96969697,17.9090909 1.96969697,15.3787879 L1.96969697,12.5757576 C1.96969697,11.4318182 1.34090909,10.8484848 0.106060606,10.8484848 L0,10.8484848 L0,8.4469697 L0.106060606,8.4469697 C1.34090909,8.4469697 1.96969697,7.86363636 1.96969697,6.71969697 L1.96969697,3.93181818 C1.96969697,1.40909091 3.36363636,0.0227272727 5.89393939,0.0227272727 L6.61363636,0.0227272727 L6.61363636,2.22727273 L5.91666667,2.22727273 C4.88636364,2.22727273 4.38636364,2.76515152 4.38636364,3.87121212 L4.38636364,7.18181818 C4.38636364,8.36363636 3.75757576,9.25 2.65151515,9.65909091 C3.75757576,10.0530303 4.38636364,10.9469697 4.38636364,12.1439394 L4.38636364,15.4318182 C4.38636364,16.5530303 4.88636364,17.0984848 5.91666667,17.0984848 L6.61363636,17.0984848 L6.61363636,19.3030303 Z M0.21969697,10.6439394 C1.49242424,10.6818182 2.18939394,11.3636364 2.18939394,12.5833333 L2.18939394,15.3787879 C2.18939394,17.8106061 3.46969697,19.0909091 5.90151515,19.0909091 L6.40151515,19.0909091 L6.40151515,17.3181818 L5.91666667,17.3181818 C4.78030303,17.3181818 4.17424242,16.6666667 4.17424242,15.4393939 L4.17424242,12.1515152 C4.17424242,10.9469697 3.47727273,10.0757576 2.26515152,9.77272727 L1.86363636,9.67424242 L2.26515152,9.56818182 C3.47727273,9.25 4.17424242,8.37878788 4.17424242,7.18939394 L4.17424242,3.87878788 C4.17424242,2.64393939 4.75757576,2.02272727 5.91666667,2.02272727 L6.40151515,2.02272727 L6.40151515,0.242424242 L5.90151515,0.242424242 C3.46969697,0.242424242 2.18939394,1.52272727 2.18939394,3.93181818 L2.18939394,6.72727273 C2.18939394,7.9469697 1.49242424,8.62878788 0.21969697,8.66666667 L0.21969697,10.6439394 Z" id="Shape" fill="#231F20"></path>
                    </g>
                    <polygon id="Path" fill="#231F20" points="0.424242424 11.4772727 0 10.8484848 0.287878788 10.75 0.53030303 10.7727273"></polygon>
                    <polygon id="Path" fill="#231F20" points="6.60606061 0.0303030303 7.03787879 0.666666667 6.93181818 0.939393939 6.54545455 0.939393939"></polygon>
                    <polygon id="Path" fill="#231F20" points="6.60606061 17.0984848 7.03787879 17.7272727 6.93181818 18.0530303 6.50757576 18.0530303 6.50757576 17.1742424"></polygon>
                </g>
                <path d="M0.106060606,8.56060606 C1.22727273,8.56060606 2.07575758,8.06818182 2.07575758,6.72727273 L2.07575758,3.93181818 C2.07575758,1.35606061 3.53030303,0.128787879 5.89393939,0.128787879 L6.50757576,0.128787879 L6.50757576,2.12121212 L5.91666667,2.12121212 C4.95454545,2.12121212 4.28030303,2.57575758 4.28030303,3.87121212 L4.28030303,7.18181818 C4.28030303,8.42424242 3.5530303,9.32575758 2.29545455,9.65909091 C3.5530303,9.97727273 4.28030303,10.8787879 4.28030303,12.1363636 L4.28030303,15.4242424 C4.28030303,16.7272727 4.9469697,17.1969697 5.91666667,17.1969697 L6.50757576,17.1969697 L6.50757576,19.1818182 L5.89393939,19.1818182 C3.53030303,19.1818182 2.07575758,17.9393939 2.07575758,15.3636364 L2.07575758,12.5757576 C2.07575758,11.2348485 1.22727273,10.7424242 0.106060606,10.7424242 L0.106060606,8.56060606 Z" id="Path" fill="#FFFFFF"></path>
            </g>
        </g>
    </g>
</svg>