<?xml version="1.0" standalone="no"?>
<!DOCTYPE svg PUBLIC "-//W3C//DTD SVG 20010904//EN"
 "http://www.w3.org/TR/2001/REC-SVG-20010904/DTD/svg10.dtd">
<svg version="1.0" xmlns="http://www.w3.org/2000/svg"
 width="700.000000pt" height="700.000000pt" viewBox="0 0 700.000000 700.000000"
 preserveAspectRatio="xMidYMid meet">
<metadata>
Created by potrace 1.14, written by Peter Selinger 2001-2017
</metadata>
<g transform="translate(0.000000,700.000000) scale(0.100000,-0.100000)"
fill="#000000" stroke="none">
<path d="M3907 5684 c-1 -1 -47 -4 -101 -8 -358 -23 -610 -208 -704 -518 -12
-36 -24 -86 -27 -110 -3 -23 -9 -56 -12 -73 -3 -16 -6 -212 -8 -435 -2 -418
-5 -451 -45 -531 -21 -40 -83 -100 -129 -123 -43 -23 -147 -46 -206 -46 l-50
0 0 -263 0 -264 40 -59 c22 -32 42 -63 46 -67 3 -5 37 -11 75 -13 81 -6 131
-18 192 -47 75 -35 75 -32 77 -507 2 -228 5 -428 8 -445 3 -16 8 -48 12 -71 8
-59 39 -162 66 -219 32 -70 171 -271 227 -329 108 -112 250 -179 447 -213 22
-4 110 -7 195 -8 l155 0 0 235 1 235 -48 72 -48 72 -113 0 c-121 1 -196 17
-240 51 -36 29 -40 79 -42 585 -2 531 8 483 -159 736 -26 41 -66 92 -87 115
l-40 40 54 37 c112 77 191 195 223 334 4 15 8 226 9 468 1 242 5 458 9 480 14
88 40 142 90 189 64 59 129 77 280 78 l111 1 0 241 -1 241 -44 65 c-25 36 -46
67 -47 69 -2 3 -162 8 -166 5z"/>
</g>
</svg>
